<svg t="1701162672305" class="icon" viewBox="0 0 1024 1024" version="1.1" xmlns="http://www.w3.org/2000/svg" p-id="14155" width="48" height="48"><path d="M922.68518 427.432506c-24.102278-128.646629-92.493213-227.136511-203.915671-295.086727-72.429656-44.230858-152.055316-63.976519-236.788982-59.872774-121.392826 5.931646-223.162814 54.887591-304.045608 145.682951-60.88426 68.390935-96.531934 148.898033-104.797223 240.004064-12.369035 135.64756 30.098947 252.813818 126.565857 349.222928 47.604888 47.547089 102.817599 80.904468 164.641097 101.141422 6.105043 12.708605 19.059295 21.508537 34.101544 21.508537 20.90887 0 37.858493-16.949623 37.858494-37.858493 0-20.90887-16.949623-37.858493-37.858494-37.858494a37.72122 37.72122 0 0 0-24.051703 8.61931c-106.560099-37.121553-186.214659-118.387266-223.654108-206.292665h60.313493c5.548726 0 11.169701 0.252872 16.718427-0.187848 14.066887-1.13431 22.967968-10.916829 22.462224-24.167301-0.505743-12.491858-10.346062-21.768634-23.972229-21.833658-26.811616-0.252872-53.630457-0.065024-80.442074-0.122824h-13.062625c-2.015748-7.759546-3.908673-15.208422-5.99667-23.155815h202.904185c-1.575029 2.521491-2.65154 4.667288-3.973696 6.560212-24.673045 35.394801-37.287726 74.640476-38.48706 117.664776-0.440719 17.664889 8.518161 27.194536 26.313097 27.194536 124.355036 0.122823 248.710073 0.122823 373.065109 0 17.794937 0 27.31736-9.529648 26.118026-27.194536-1.264358-17.982784-4.038721-35.900545-6.184517-54.259024h142.149973c-33.111732 82.277199-112.932464 167.921203-223.719132 206.292665-6.618011-5.678774-15.208422-9.125053-24.615246-9.125053-20.90887 0-37.858493 16.949623-37.858493 37.858494 0 20.90887 16.949623 37.858493 37.858493 37.858493 14.904976 0 27.758079-8.633759 33.935371-21.154517 71.40372-23.083566 133.234442-63.600824 185.188723-121.241103 62.271442-69.14955 97.54342-150.668134 107.824457-243.031298 0.693591-6.054469 1.387181-12.051139 2.080772-18.105608v-50.350351c-2.196371-16.219908-3.648576-32.620439-6.675811-48.710299zM335.921881 692.10239c5.425902-62.965033 64.547286-142.460644 163.217791-143.161459 96.849829-0.628567 158.680552 76.533401 165.110716 143.161459H335.921881z m531.369966-81.764231h-7.759547c-56.216973 0.065024-112.368922 0.122823-168.52087-0.122823-2.904411-0.065024-6.625236-2.145796-8.518161-4.47944-4.291593-5.425902-7.694522-11.545396-12.051139-18.170632h202.846386c-2.087997 7.817345-3.980922 15.071148-5.996669 22.772895z m14.890525-81.641407c-0.187847 3.598002-0.758615 7.196004-1.264358 11.92109h-9.211751c-80.824994 0-161.577738 0.065024-242.337708-0.122823-4.47944 0-9.587447-1.069286-13.315497-3.410155-43.342195-27.570231-90.41244-38.609883-141.456383-32.743262-1.069286 0.122823-2.21082 0.065024-3.973696 0.065025-8.135241-21.450738-10.09319-43.660091-7.065956-66.310163 3.850873-29.022437 15.771964-54.389072 35.14193-76.468377 3.157283-3.598002 5.743798-4.103745 9.905342-2.521491 15.331245 5.678774 23.661558 16.653402 27.006689 32.432591 1.452206 7.13098 3.410154 14.95555 7.636723 20.569299 5.866622 7.82457 16.718426 9.146728 25.236587 5.108007 9.211752-4.356617 14.066887-11.863291 13.626168-22.079305-1.199334-28.899613-13.691192-51.92538-37.099879-68.961702-1.957949-1.452206-4.038721-2.839387-7.065955-5.050207 26.623769-18.047809 53.05969-20.381452 80.629921-5.548726 4.161544 2.21082 8.265289 4.920159 12.74473 6.119493 11.292524 2.96221 22.274377-2.904411 26.688793-13.561144 4.291593-10.533909 0.570767-21.833658-9.529648-28.39387-41.897214-27.194536-91.864646-26.623769-133.061045 1.322158-2.080772 1.387181-4.226568 2.65154-6.30734 4.038721-5.303079-8.518161-9.840318-17.101346-15.649141-24.860893-28.075974-37.793469-65.934468-54.446872-112.744617-50.726046-13.120424 1.011486-22.209353 11.61042-21.515762 24.225101 0.693591 12.679705 10.728981 22.144329 24.225101 21.327914 21.768634-1.322157 41.702142 2.96221 58.738464 17.036323 5.490927 4.544464 10.09319 10.09319 14.637654 16.024835-16.342731-0.823639-32.49039-1.575029-47.005221 5.548726-11.104676 5.425902-21.826433 12.30401-31.421104 20.128581-10.281037 8.453137-10.346062 22.78012-2.015748 32.237518 8.388113 9.529648 22.772895 10.47611 32.996133 1.264358 14.066887-12.744729 29.463156-17.101346 48.262355-9.399599-1.640053 2.521491-2.839387 4.667288-4.226569 6.625237-36.023368 50.473175-45.993735 105.620862-29.716027 165.428611 1.322157 4.797336 0.440719 6.69026-3.973697 8.893856-12.30401 5.99667-24.167302 12.744729-36.341264 18.929247-3.092259 1.51723-6.813084 2.716564-10.223238 2.716564-82.147151 0.187847-164.359326 0-246.506477 0.317895-8.012418 0.065024-8.265289-4.103745-8.640985-9.65247-6.307341-96.091214 18.105608-183.47642 76.345554-260.255469 62.206418-81.959303 144.924336-131.355968 246.441453-148.204442 173.318206-28.834589 350.039342 71.801089 414.644427 235.336777 21.775859 54.938165 30.481867 111.783704 26.761042 170.652217z" fill="#040000" p-id="14156"></path></svg>