<svg t="1701342843331" class="icon" viewBox="0 0 1024 1024" version="1.1" xmlns="http://www.w3.org/2000/svg" p-id="7059" width="48" height="48"><path d="M259.2 262.4h64v64h-64z" fill="#707070" p-id="7060"></path><path d="M451.2 134.4h-320v320h320v-320z m-64 256h-192v-192h192v192zM259.2 704h64v64h-64z" fill="#707070" p-id="7061"></path><path d="M451.2 576h-320v320h320V576z m-64 256h-192v-192h192v192zM700.8 262.4h64v64h-64z" fill="#707070" p-id="7062"></path><path d="M892.8 134.4h-320v320h320v-320z m-64 256h-192v-192h192v192z" fill="#707070" p-id="7063"></path><path d="M444.8 531.2v-32H134.4v32z" fill="#707070" p-id="7064"></path><path d="M524.8 140.8h-32v748.8h32z" fill="#707070" p-id="7065"></path><path d="M854.4 716.8h32v-214.4h-32z" fill="#707070" p-id="7066"></path><path d="M755.2 716.8h32v-214.4h-32z" fill="#707070" p-id="7067"></path><path d="M665.6 502.4v387.2h32V502.4h-16z" fill="#707070" p-id="7068"></path><path d="M579.2 502.4v387.2h32V502.4h-16zM758.4 761.6h128v128h-128z" fill="#707070" p-id="7069"></path></svg>